<svg width="42" height="39" viewBox="0 0 42 39" fill="none" xmlns="http://www.w3.org/2000/svg">
    <path d="M20.8889 11.4868C15.7037 11.4868 11.4074 15.4075 11.4074 20.291C11.4074 25.1746 15.6296 29.0953 20.8889 29.0953C26.1482 29.0953 30.3704 25.1059 30.3704 20.291C30.3704 15.4762 26.0741 11.4868 20.8889 11.4868ZM20.8889 25.9313C17.5556 25.9313 14.8148 23.3863 14.8148 20.291C14.8148 17.1958 17.5556 14.6508 20.8889 14.6508C24.2222 14.6508 26.963 17.1958 26.963 20.291C26.963 23.3863 24.2222 25.9313 20.8889 25.9313Z" fill="#184093"/>
    <path d="M30.7407 13.2751C31.9271 13.2751 32.8889 12.382 32.8889 11.2804C32.8889 10.1787 31.9271 9.28564 30.7407 9.28564C29.5544 9.28564 28.5926 10.1787 28.5926 11.2804C28.5926 12.382 29.5544 13.2751 30.7407 13.2751Z" fill="#184093"/>
    <path d="M36.2963 6.12186C34.3703 4.26472 31.6296 3.30176 28.5185 3.30176H13.2592C6.81479 3.30176 2.51849 7.29117 2.51849 13.2753V27.3758C2.51849 30.3335 3.55553 32.8785 5.6296 34.7356C7.6296 36.524 10.2963 37.4182 13.3333 37.4182H28.4444C31.6296 37.4182 34.2963 36.4552 36.2222 34.7356C38.2222 32.9473 39.2592 30.4023 39.2592 27.4446V13.2753C39.2592 10.3864 38.2222 7.91022 36.2963 6.12186ZM36 27.4446C36 29.5769 35.1852 31.2965 33.8518 32.4658C32.5185 33.6351 30.6666 34.2541 28.4444 34.2541H13.3333C11.1111 34.2541 9.25923 33.6351 7.9259 32.4658C6.59257 31.2277 5.9259 29.5081 5.9259 27.3758V13.2753C5.9259 11.2118 6.59257 9.49223 7.9259 8.25414C9.18516 7.08483 11.1111 6.46578 13.3333 6.46578H28.5926C30.8148 6.46578 32.6666 7.08483 34 8.32292C35.2592 9.56102 36 11.2806 36 13.2753V27.4446Z" fill="#184093"/>
</svg>
